<svg xmlns="http://www.w3.org/2000/svg" width="176.665" height="23.465" viewBox="0 0 176.665 23.465"><defs><style>.a{fill:#012a93;}</style></defs><path class="a" d="M28.2,30.022,28.133,7.459H22.879L15.143,20.481,7.214,7.459H1.96V30.022h5.9V18.386l5.77,9.412h2.836l5.8-9.734.064,11.958Zm4.513,0h6.382V7.459H32.71ZM58.85,7.459V19.482L48.89,7.459H43.636V30.022h6.253V18l9.96,12.023H65.1V7.459ZM75.933,25.09V20.965H85.957v-4.77H75.933v-3.8H87.311V7.459h-17.7V30.022H87.73V25.09Zm20.145,4.932h6.382V12.52h6.9V7.459H89.148v5.06h6.93Zm21.982-4.932V20.965h10.024v-4.77H118.061v-3.8h11.378V7.459h-17.7V30.022h18.115V25.09Zm26.559,5.383a11.934,11.934,0,0,0,9.7-4.255l-4.061-3.674a6.67,6.67,0,0,1-5.318,2.643,6.05,6.05,0,0,1-6.285-6.446,6.05,6.05,0,0,1,6.285-6.446,6.67,6.67,0,0,1,5.318,2.643l4.061-3.674a11.934,11.934,0,0,0-9.7-4.255c-7.156,0-12.409,4.867-12.409,11.733S137.465,30.473,144.62,30.473ZM172.243,7.459v8.477h-8.7V7.459h-6.382V30.022h6.382v-8.8h8.7v8.8h6.382V7.459Z" transform="translate(-1.96 -7.008)"/></svg>